REM DIRINDEX 1\2\4\18,1\2\4\19,1\2\5\20,1\2\5\21,1\2\6\22,1\2\7\23,1\2\8\24,1\2\8\25,1\2\9\26,1\2\10\27,1\3\11\28,1\3\11\29,1\3\11\30,1\3\11\31,1\3\12\32,1\3\12\33,1\3\12\34,1\3\12\35,1\3\13\36,1\3\13\37,1\3\14\38,1\3\14\39,1\3\15\40,1\3\15\41,1\3\15\42,1\3\16\43,1\3\16\44,1\3\17\45,1\3\17\46
REM DIRNAME cjc023,folder01,folder02,folder03,folder04,folder05,folder06,folder07,folder08,folder09,folder10,folder11,folder12,folder13,folder14,folder15,folder16,folder17,folder18,folder19,folder20,folder21,folder22,folder23,folder24,folder25,folder26,folder27,folder28,folder29,folder30,folder31,folder32,folder33,folder34,folder35,folder36,folder37,folder38,folder39,folder40,folder41,folder42,folder43,folder44,folder45
TITLE ""
FILE "01.mp3" MP3
  TRACK 01 AUDIO
    TITLE "0:"
    INDEX 01 00:00:00
  TRACK 02 AUDIO
    TITLE "28:cjc023_2796"
    INDEX 01 00:00:13
  TRACK 03 AUDIO
    TITLE "0:"
    INDEX 01 00:01:26
  TRACK 04 AUDIO
    TITLE "29:cjc023_2797"
    INDEX 01 00:01:69
  TRACK 05 AUDIO
    TITLE "0:"
    INDEX 01 00:03:49
  TRACK 06 AUDIO
    TITLE "30:cjc023_2798"
    INDEX 01 00:03:70
  TRACK 07 AUDIO
    TITLE "0:"
    INDEX 01 00:05:57
  TRACK 08 AUDIO
    TITLE "31:cjc023_2799"
    INDEX 01 00:06:04
  TRACK 09 AUDIO
    TITLE "0:"
    INDEX 01 00:07:68
  TRACK 10 AUDIO
    TITLE "28:cjc023_2800"
    INDEX 01 00:08:73
  TRACK 11 AUDIO
    TITLE "0:"
    INDEX 01 00:10:10
  TRACK 12 AUDIO
    TITLE "29:cjc023_2801"
    INDEX 01 00:10:59
  TRACK 13 AUDIO
    TITLE "0:"
    INDEX 01 00:13:55
  TRACK 14 AUDIO
    TITLE "30:cjc023_2802"
    INDEX 01 00:14:06
  TRACK 15 AUDIO
    TITLE "0:"
    INDEX 01 00:16:49
  TRACK 16 AUDIO
    TITLE "31:cjc023_2803"
    INDEX 01 00:16:73
  TRACK 17 AUDIO
    TITLE "0:"
    INDEX 01 00:19:40
  TRACK 18 AUDIO
    TITLE "28:cjc023_2804"
    INDEX 01 00:20:41
  TRACK 19 AUDIO
    TITLE "0:"
    INDEX 01 00:21:53
  TRACK 20 AUDIO
    TITLE "29:cjc023_2805"
    INDEX 01 00:22:25
  TRACK 21 AUDIO
    TITLE "0:"
    INDEX 01 00:24:35
  TRACK 22 AUDIO
    TITLE "30:cjc023_2806"
    INDEX 01 00:24:55
  TRACK 23 AUDIO
    TITLE "0:"
    INDEX 01 00:26:46
  TRACK 24 AUDIO
    TITLE "31:cjc023_2807"
    INDEX 01 00:27:02
  TRACK 25 AUDIO
    TITLE "0:"
    INDEX 01 00:28:68
  TRACK 26 AUDIO
    TITLE "28:cjc023_2808"
    INDEX 01 00:29:72
  TRACK 27 AUDIO
    TITLE "0:"
    INDEX 01 00:31:14
  TRACK 28 AUDIO
    TITLE "29:cjc023_2809"
    INDEX 01 00:31:61
  TRACK 29 AUDIO
    TITLE "0:"
    INDEX 01 00:34:43
  TRACK 30 AUDIO
    TITLE "30:cjc023_2810"
    INDEX 01 00:34:63
  TRACK 31 AUDIO
    TITLE "0:"
    INDEX 01 00:37:20
  TRACK 32 AUDIO
    TITLE "31:cjc023_2811"
    INDEX 01 00:37:42
  TRACK 33 AUDIO
    TITLE "0:"
    INDEX 01 00:39:70
  TRACK 34 AUDIO
    TITLE "28:cjc023_2812"
    INDEX 01 00:40:70
  TRACK 35 AUDIO
    TITLE "0:"
    INDEX 01 00:42:14
  TRACK 36 AUDIO
    TITLE "29:cjc023_2813"
    INDEX 01 00:42:61
  TRACK 37 AUDIO
    TITLE "0:"
    INDEX 01 00:44:01
  TRACK 38 AUDIO
    TITLE "30:cjc023_2814"
    INDEX 01 00:44:26
  TRACK 39 AUDIO
    TITLE "0:"
    INDEX 01 00:46:02
  TRACK 40 AUDIO
    TITLE "31:cjc023_2815"
    INDEX 01 00:46:25
  TRACK 41 AUDIO
    TITLE "0:"
    INDEX 01 00:48:02
  TRACK 42 AUDIO
    TITLE "28:cjc023_2816"
    INDEX 01 00:49:00
  TRACK 43 AUDIO
    TITLE "0:"
    INDEX 01 00:50:17
  TRACK 44 AUDIO
    TITLE "29:cjc023_2817"
    INDEX 01 00:50:66
  TRACK 45 AUDIO
    TITLE "0:"
    INDEX 01 00:52:53
  TRACK 46 AUDIO
    TITLE "30:cjc023_2818"
    INDEX 01 00:53:00
  TRACK 47 AUDIO
    TITLE "0:"
    INDEX 01 00:55:03
  TRACK 48 AUDIO
    TITLE "31:cjc023_2819"
    INDEX 01 00:55:22
  TRACK 49 AUDIO
    TITLE "0:"
    INDEX 01 00:57:23
  TRACK 50 AUDIO
    TITLE "28:cjc023_2820"
    INDEX 01 00:58:22
  TRACK 51 AUDIO
    TITLE "0:"
    INDEX 01 00:59:61
  TRACK 52 AUDIO
    TITLE "29:cjc023_2821"
    INDEX 01 01:00:33
  TRACK 53 AUDIO
    TITLE "0:"
    INDEX 01 01:01:70
  TRACK 54 AUDIO
    TITLE "30:cjc023_2822"
    INDEX 01 01:02:16
  TRACK 55 AUDIO
    TITLE "0:"
    INDEX 01 01:04:01
  TRACK 56 AUDIO
    TITLE "31:cjc023_2823"
    INDEX 01 01:04:21
  TRACK 57 AUDIO
    TITLE "0:"
    INDEX 01 01:06:08
  TRACK 58 AUDIO
    TITLE "28:cjc023_2824"
    INDEX 01 01:07:06
  TRACK 59 AUDIO
    TITLE "0:"
    INDEX 01 01:08:13
  TRACK 60 AUDIO
    TITLE "29:cjc023_2825"
    INDEX 01 01:08:62
  TRACK 61 AUDIO
    TITLE "0:"
    INDEX 01 01:11:07
  TRACK 62 AUDIO
    TITLE "30:cjc023_2826"
    INDEX 01 01:11:27
  TRACK 63 AUDIO
    TITLE "0:"
    INDEX 01 01:13:49
  TRACK 64 AUDIO
    TITLE "31:cjc023_2827"
    INDEX 01 01:13:69
  TRACK 65 AUDIO
    TITLE "0:"
    INDEX 01 01:16:20
  TRACK 66 AUDIO
    TITLE "28:cjc023_2828"
    INDEX 01 01:17:16
  TRACK 67 AUDIO
    TITLE "0:"
    INDEX 01 01:18:17
  TRACK 68 AUDIO
    TITLE "29:cjc023_2829"
    INDEX 01 01:18:64
  TRACK 69 AUDIO
    TITLE "0:"
    INDEX 01 01:22:11
  TRACK 70 AUDIO
    TITLE "30:cjc023_2830"
    INDEX 01 01:22:33
  TRACK 71 AUDIO
    TITLE "0:"
    INDEX 01 01:24:73
  TRACK 72 AUDIO
    TITLE "31:cjc023_2831"
    INDEX 01 01:25:21
  TRACK 73 AUDIO
    TITLE "0:"
    INDEX 01 01:27:59
  TRACK 74 AUDIO
    TITLE "28:cjc023_2832"
    INDEX 01 01:28:55
  TRACK 75 AUDIO
    TITLE "0:"
    INDEX 01 01:29:68
  TRACK 76 AUDIO
    TITLE "29:cjc023_2833"
    INDEX 01 01:30:42
  TRACK 77 AUDIO
    TITLE "0:"
    INDEX 01 01:32:37
  TRACK 78 AUDIO
    TITLE "30:cjc023_2834"
    INDEX 01 01:32:68
  TRACK 79 AUDIO
    TITLE "0:"
    INDEX 01 01:34:59
  TRACK 80 AUDIO
    TITLE "31:cjc023_2835"
    INDEX 01 01:35:08
  TRACK 81 AUDIO
    TITLE "0:"
    INDEX 01 01:36:74
  TRACK 82 AUDIO
    TITLE "28:cjc023_2836"
    INDEX 01 01:37:71
  TRACK 83 AUDIO
    TITLE "0:"
    INDEX 01 01:39:10
  TRACK 84 AUDIO
    TITLE "29:cjc023_2837"
    INDEX 01 01:39:59
  TRACK 85 AUDIO
    TITLE "0:"
    INDEX 01 01:42:65
  TRACK 86 AUDIO
    TITLE "30:cjc023_2838"
    INDEX 01 01:43:13
  TRACK 87 AUDIO
    TITLE "0:"
    INDEX 01 01:46:10
  TRACK 88 AUDIO
    TITLE "31:cjc023_2839"
    INDEX 01 01:46:33
  TRACK 89 AUDIO
    TITLE "0:"
    INDEX 01 01:49:32
  TRACK 90 AUDIO
    TITLE "28:cjc023_2840"
    INDEX 01 01:50:29
  TRACK 91 AUDIO
    TITLE "0:"
    INDEX 01 01:51:32
  TRACK 92 AUDIO
    TITLE "29:cjc023_2841"
    INDEX 01 01:52:08
  TRACK 93 AUDIO
    TITLE "0:"
    INDEX 01 01:53:49
  TRACK 94 AUDIO
    TITLE "30:cjc023_2842"
    INDEX 01 01:54:15
  TRACK 95 AUDIO
    TITLE "0:"
    INDEX 01 01:56:02
  TRACK 96 AUDIO
    TITLE "31:cjc023_2843"
    INDEX 01 01:56:26
  TRACK 97 AUDIO
    TITLE "0:"
    INDEX 01 01:58:11
  TRACK 98 AUDIO
    TITLE "28:cjc023_2844"
    INDEX 01 01:59:10
  TRACK 99 AUDIO
    TITLE "0:"
    INDEX 01 02:00:25
  TRACK 100 AUDIO
    TITLE "29:cjc023_2845"
    INDEX 01 02:00:71
  TRACK 101 AUDIO
    TITLE "0:"
    INDEX 01 02:02:67
  TRACK 102 AUDIO
    TITLE "30:cjc023_2846"
    INDEX 01 02:03:12
  TRACK 103 AUDIO
    TITLE "0:"
    INDEX 01 02:04:62
  TRACK 104 AUDIO
    TITLE "31:cjc023_2847"
    INDEX 01 02:05:11
  TRACK 105 AUDIO
    TITLE "0:"
    INDEX 01 02:06:59
  TRACK 106 AUDIO
    TITLE "28:cjc023_2848"
    INDEX 01 02:07:55
  TRACK 107 AUDIO
    TITLE "0:"
    INDEX 01 02:08:62
  TRACK 108 AUDIO
    TITLE "29:cjc023_2849"
    INDEX 01 02:09:36
  TRACK 109 AUDIO
    TITLE "0:"
    INDEX 01 02:11:02
  TRACK 110 AUDIO
    TITLE "30:cjc023_2850"
    INDEX 01 02:11:27
  TRACK 111 AUDIO
    TITLE "0:"
    INDEX 01 02:13:01
  TRACK 112 AUDIO
    TITLE "31:cjc023_2851"
    INDEX 01 02:13:26
  TRACK 113 AUDIO
    TITLE "0:"
    INDEX 01 02:15:00
  TRACK 114 AUDIO
    TITLE "28:cjc023_2852"
    INDEX 01 02:16:01
  TRACK 115 AUDIO
    TITLE "0:"
    INDEX 01 02:17:32
  TRACK 116 AUDIO
    TITLE "29:cjc023_2853"
    INDEX 01 02:18:06
  TRACK 117 AUDIO
    TITLE "0:"
    INDEX 01 02:19:56
  TRACK 118 AUDIO
    TITLE "30:cjc023_2854"
    INDEX 01 02:20:03
  TRACK 119 AUDIO
    TITLE "0:"
    INDEX 01 02:22:02
  TRACK 120 AUDIO
    TITLE "31:cjc023_2855"
    INDEX 01 02:22:23
  TRACK 121 AUDIO
    TITLE "0:"
    INDEX 01 02:24:20
  TRACK 122 AUDIO
    TITLE "28:cjc023_2856"
    INDEX 01 02:25:18
  TRACK 123 AUDIO
    TITLE "0:"
    INDEX 01 02:26:17
  TRACK 124 AUDIO
    TITLE "29:cjc023_2857"
    INDEX 01 02:26:62
  TRACK 125 AUDIO
    TITLE "0:"
    INDEX 01 02:29:25
  TRACK 126 AUDIO
    TITLE "30:cjc023_2858"
    INDEX 01 02:29:49
  TRACK 127 AUDIO
    TITLE "0:"
    INDEX 01 02:31:59
  TRACK 128 AUDIO
    TITLE "31:cjc023_2859"
    INDEX 01 02:32:06
  TRACK 129 AUDIO
    TITLE "0:"
    INDEX 01 02:34:18
  TRACK 130 AUDIO
    TITLE "28:cjc023_2860"
    INDEX 01 02:35:12
  TRACK 131 AUDIO
    TITLE "0:"
    INDEX 01 02:36:35
  TRACK 132 AUDIO
    TITLE "29:cjc023_2861"
    INDEX 01 02:37:07
  TRACK 133 AUDIO
    TITLE "0:"
    INDEX 01 02:38:44
  TRACK 134 AUDIO
    TITLE "30:cjc023_2862"
    INDEX 01 02:38:67
  TRACK 135 AUDIO
    TITLE "0:"
    INDEX 01 02:40:48
  TRACK 136 AUDIO
    TITLE "31:cjc023_2863"
    INDEX 01 02:40:70
  TRACK 137 AUDIO
    TITLE "0:"
    INDEX 01 02:42:49
  TRACK 138 AUDIO
    TITLE "28:cjc023_2864"
    INDEX 01 02:43:47
  TRACK 139 AUDIO
    TITLE "0:"
    INDEX 01 02:44:58
  TRACK 140 AUDIO
    TITLE "29:cjc023_2865"
    INDEX 01 02:45:30
  TRACK 141 AUDIO
    TITLE "0:"
    INDEX 01 02:47:17
  TRACK 142 AUDIO
    TITLE "30:cjc023_2866"
    INDEX 01 02:47:41
  TRACK 143 AUDIO
    TITLE "0:"
    INDEX 01 02:49:08
  TRACK 144 AUDIO
    TITLE "31:cjc023_2867"
    INDEX 01 02:49:36
  TRACK 145 AUDIO
    TITLE "0:"
    INDEX 01 02:51:05
  TRACK 146 AUDIO
    TITLE "28:cjc023_2868"
    INDEX 01 02:52:05
  TRACK 147 AUDIO
    TITLE "0:"
    INDEX 01 02:53:14
  TRACK 148 AUDIO
    TITLE "29:cjc023_2869"
    INDEX 01 02:53:63
  TRACK 149 AUDIO
    TITLE "0:"
    INDEX 01 02:55:68
  TRACK 150 AUDIO
    TITLE "30:cjc023_2870"
    INDEX 01 02:56:16
  TRACK 151 AUDIO
    TITLE "0:"
    INDEX 01 02:58:23
  TRACK 152 AUDIO
    TITLE "31:cjc023_2871"
    INDEX 01 02:58:44
  TRACK 153 AUDIO
    TITLE "0:"
    INDEX 01 03:00:53
  TRACK 154 AUDIO
    TITLE "28:cjc023_2872"
    INDEX 01 03:01:51
  TRACK 155 AUDIO
    TITLE "0:"
    INDEX 01 03:02:62
  TRACK 156 AUDIO
    TITLE "29:cjc023_2873"
    INDEX 01 03:03:36
  TRACK 157 AUDIO
    TITLE "0:"
    INDEX 01 03:06:20
  TRACK 158 AUDIO
    TITLE "30:cjc023_2874"
    INDEX 01 03:06:42
  TRACK 159 AUDIO
    TITLE "0:"
    INDEX 01 03:08:62
  TRACK 160 AUDIO
    TITLE "31:cjc023_2875"
    INDEX 01 03:09:11
  TRACK 161 AUDIO
    TITLE "0:"
    INDEX 01 03:11:31
  TRACK 162 AUDIO
    TITLE "28:cjc023_2876"
    INDEX 01 03:12:27
  TRACK 163 AUDIO
    TITLE "0:"
    INDEX 01 03:13:44
  TRACK 164 AUDIO
    TITLE "29:cjc023_2877"
    INDEX 01 03:14:18
  TRACK 165 AUDIO
    TITLE "0:"
    INDEX 01 03:17:38
  TRACK 166 AUDIO
    TITLE "30:cjc023_2878"
    INDEX 01 03:17:61
  TRACK 167 AUDIO
    TITLE "0:"
    INDEX 01 03:20:50
  TRACK 168 AUDIO
    TITLE "31:cjc023_2879"
    INDEX 01 03:20:70
  TRACK 169 AUDIO
    TITLE "0:"
    INDEX 01 03:23:58
  TRACK 170 AUDIO
    TITLE "28:cjc023_2880"
    INDEX 01 03:24:56
  TRACK 171 AUDIO
    TITLE "0:"
    INDEX 01 03:26:07
  TRACK 172 AUDIO
    TITLE "29:cjc023_2881"
    INDEX 01 03:26:60
  TRACK 173 AUDIO
    TITLE "0:"
    INDEX 01 03:28:48
  TRACK 174 AUDIO
    TITLE "30:cjc023_2882"
    INDEX 01 03:28:69
  TRACK 175 AUDIO
    TITLE "0:"
    INDEX 01 03:31:11
  TRACK 176 AUDIO
    TITLE "31:cjc023_2883"
    INDEX 01 03:31:32
  TRACK 177 AUDIO
    TITLE "0:"
    INDEX 01 03:33:47
  TRACK 178 AUDIO
    TITLE "28:cjc023_2884"
    INDEX 01 03:34:46
  TRACK 179 AUDIO
    TITLE "0:"
    INDEX 01 03:35:59
  TRACK 180 AUDIO
    TITLE "29:cjc023_2885"
    INDEX 01 03:36:35
  TRACK 181 AUDIO
    TITLE "0:"
    INDEX 01 03:38:69
  TRACK 182 AUDIO
    TITLE "30:cjc023_2886"
    INDEX 01 03:39:18
  TRACK 183 AUDIO
    TITLE "0:"
    INDEX 01 03:41:38
  TRACK 184 AUDIO
    TITLE "31:cjc023_2887"
    INDEX 01 03:41:64
  TRACK 185 AUDIO
    TITLE "0:"
    INDEX 01 03:44:11
  TRACK 186 AUDIO
    TITLE "28:cjc023_2888"
    INDEX 01 03:45:09
  TRACK 187 AUDIO
    TITLE "0:"
    INDEX 01 03:46:20
  TRACK 188 AUDIO
    TITLE "29:cjc023_2889"
    INDEX 01 03:46:71
  TRACK 189 AUDIO
    TITLE "0:"
    INDEX 01 03:48:68
  TRACK 190 AUDIO
    TITLE "30:cjc023_2890"
    INDEX 01 03:49:18
  TRACK 191 AUDIO
    TITLE "0:"
    INDEX 01 03:51:05
  TRACK 192 AUDIO
    TITLE "31:cjc023_2891"
    INDEX 01 03:51:25
  TRACK 193 AUDIO
    TITLE "0:"
    INDEX 01 03:53:14
  TRACK 194 AUDIO
    TITLE "28:cjc023_2892"
    INDEX 01 03:54:08
  TRACK 195 AUDIO
    TITLE "0:"
    INDEX 01 03:55:29
  TRACK 196 AUDIO
    TITLE "29:cjc023_2893"
    INDEX 01 03:56:01
  TRACK 197 AUDIO
    TITLE "0:"
    INDEX 01 03:58:04
  TRACK 198 AUDIO
    TITLE "30:cjc023_2894"
    INDEX 01 03:58:25
  TRACK 199 AUDIO
    TITLE "0:"
    INDEX 01 04:00:20
  TRACK 200 AUDIO
    TITLE "31:cjc023_2895"
    INDEX 01 04:00:40
  TRACK 201 AUDIO
    TITLE "0:"
    INDEX 01 04:02:35
  TRACK 202 AUDIO
    TITLE "28:cjc023_2896"
    INDEX 01 04:03:30
  TRACK 203 AUDIO
    TITLE "0:"
    INDEX 01 04:04:49
  TRACK 204 AUDIO
    TITLE "29:cjc023_2897"
    INDEX 01 04:05:25
  TRACK 205 AUDIO
    TITLE "0:"
    INDEX 01 04:06:62
  TRACK 206 AUDIO
    TITLE "30:cjc023_2898"
    INDEX 01 04:07:12
  TRACK 207 AUDIO
    TITLE "0:"
    INDEX 01 04:08:65
  TRACK 208 AUDIO
    TITLE "31:cjc023_2899"
    INDEX 01 04:09:13
  TRACK 209 AUDIO
    TITLE "0:"
    INDEX 01 04:10:66
  TRACK 210 AUDIO
    TITLE "28:cjc023_2900"
    INDEX 01 04:11:69
  TRACK 211 AUDIO
    TITLE "0:"
    INDEX 01 04:13:13
  TRACK 212 AUDIO
    TITLE "29:cjc023_2901"
    INDEX 01 04:13:60
  TRACK 213 AUDIO
    TITLE "0:"
    INDEX 01 04:17:07
  TRACK 214 AUDIO
    TITLE "30:cjc023_2902"
    INDEX 01 04:17:32
  TRACK 215 AUDIO
    TITLE "0:"
    INDEX 01 04:20:46
  TRACK 216 AUDIO
    TITLE "31:cjc023_2903"
    INDEX 01 04:20:72
  TRACK 217 AUDIO
    TITLE "0:"
    INDEX 01 04:24:11
  TRACK 218 AUDIO
    TITLE "28:cjc023_2904"
    INDEX 01 04:25:10
  TRACK 219 AUDIO
    TITLE "0:"
    INDEX 01 04:26:25
  TRACK 220 AUDIO
    TITLE "29:cjc023_2905"
    INDEX 01 04:26:72
  TRACK 221 AUDIO
    TITLE "0:"
    INDEX 01 04:28:54
  TRACK 222 AUDIO
    TITLE "30:cjc023_2906"
    INDEX 01 04:29:00
  TRACK 223 AUDIO
    TITLE "0:"
    INDEX 01 04:30:70
  TRACK 224 AUDIO
    TITLE "31:cjc023_2907"
    INDEX 01 04:31:27
  TRACK 225 AUDIO
    TITLE "0:"
    INDEX 01 04:33:21
  TRACK 226 AUDIO
    TITLE "28:cjc023_2908"
    INDEX 01 04:34:21
  TRACK 227 AUDIO
    TITLE "0:"
    INDEX 01 04:35:38
  TRACK 228 AUDIO
    TITLE "29:cjc023_2909"
    INDEX 01 04:36:10
  TRACK 229 AUDIO
    TITLE "0:"
    INDEX 01 04:38:23
  TRACK 230 AUDIO
    TITLE "30:cjc023_2910"
    INDEX 01 04:38:42
  TRACK 231 AUDIO
    TITLE "0:"
    INDEX 01 04:40:35
  TRACK 232 AUDIO
    TITLE "31:cjc023_2911"
    INDEX 01 04:40:53
  TRACK 233 AUDIO
    TITLE "0:"
    INDEX 01 04:42:44
  TRACK 234 AUDIO
    TITLE "28:cjc023_2912"
    INDEX 01 04:43:39
  TRACK 235 AUDIO
    TITLE "0:"
    INDEX 01 04:44:57
  TRACK 236 AUDIO
    TITLE "29:cjc023_2913"
    INDEX 01 04:45:29
  TRACK 237 AUDIO
    TITLE "0:"
    INDEX 01 04:47:31
  TRACK 238 AUDIO
    TITLE "30:cjc023_2914"
    INDEX 01 04:47:53
  TRACK 239 AUDIO
    TITLE "0:"
    INDEX 01 04:49:56
  TRACK 240 AUDIO
    TITLE "31:cjc023_2915"
    INDEX 01 04:50:02
  TRACK 241 AUDIO
    TITLE "0:"
    INDEX 01 04:52:05
  TRACK 242 AUDIO
    TITLE "28:cjc023_2916"
    INDEX 01 04:53:03
  TRACK 243 AUDIO
    TITLE "0:"
    INDEX 01 04:54:26
  TRACK 244 AUDIO
    TITLE "29:cjc023_2917"
    INDEX 01 04:55:00
  TRACK 245 AUDIO
    TITLE "0:"
    INDEX 01 04:56:52
  TRACK 246 AUDIO
    TITLE "30:cjc023_2918"
    INDEX 01 04:57:00
  TRACK 247 AUDIO
    TITLE "0:"
    INDEX 01 04:59:01
  TRACK 248 AUDIO
    TITLE "31:cjc023_2919"
    INDEX 01 04:59:19
  TRACK 249 AUDIO
    TITLE "0:"
    INDEX 01 05:01:20
  TRACK 250 AUDIO
    TITLE "28:cjc023_2920"
    INDEX 01 05:02:17
  TRACK 251 AUDIO
    TITLE "0:"
    INDEX 01 05:03:38
  TRACK 252 AUDIO
    TITLE "29:cjc023_2921"
    INDEX 01 05:04:10
  TRACK 253 AUDIO
    TITLE "0:"
    INDEX 01 05:07:05
  TRACK 254 AUDIO
    TITLE "30:cjc023_2922"
    INDEX 01 05:07:28
  TRACK 255 AUDIO
    TITLE "0:"
    INDEX 01 05:10:25
  TRACK 256 AUDIO
    TITLE "31:cjc023_2923"
    INDEX 01 05:10:48
  TRACK 257 AUDIO
    TITLE "0:"
    INDEX 01 05:13:46
  TRACK 258 AUDIO
    TITLE "28:cjc023_2924"
    INDEX 01 05:14:42
  TRACK 259 AUDIO
    TITLE "0:"
    INDEX 01 05:15:49
  TRACK 260 AUDIO
    TITLE "29:cjc023_2925"
    INDEX 01 05:16:25
  TRACK 261 AUDIO
    TITLE "0:"
    INDEX 01 05:19:31
  TRACK 262 AUDIO
    TITLE "30:cjc023_2926"
    INDEX 01 05:19:57
  TRACK 263 AUDIO
    TITLE "0:"
    INDEX 01 05:22:28
  TRACK 264 AUDIO
    TITLE "31:cjc023_2927"
    INDEX 01 05:22:49
  TRACK 265 AUDIO
    TITLE "0:"
    INDEX 01 05:25:20
  TRACK 266 AUDIO
    TITLE "28:cjc023_2928"
    INDEX 01 05:26:18
  TRACK 267 AUDIO
    TITLE "0:"
    INDEX 01 05:27:51
  TRACK 268 AUDIO
    TITLE "29:cjc023_2929"
    INDEX 01 05:28:24
  TRACK 269 AUDIO
    TITLE "0:"
    INDEX 01 05:29:73
  TRACK 270 AUDIO
    TITLE "30:cjc023_2930"
    INDEX 01 05:30:21
  TRACK 271 AUDIO
    TITLE "0:"
    INDEX 01 05:32:38
  TRACK 272 AUDIO
    TITLE "31:cjc023_2931"
    INDEX 01 05:32:63
  TRACK 273 AUDIO
    TITLE "0:"
    INDEX 01 05:35:05
  TRACK 274 AUDIO
    TITLE "28:cjc023_2932"
    INDEX 01 05:36:08
  TRACK 275 AUDIO
    TITLE "0:"
    INDEX 01 05:37:18
  TRACK 276 AUDIO
    TITLE "29:cjc023_2933"
    INDEX 01 05:37:65
  TRACK 277 AUDIO
    TITLE "0:"
    INDEX 01 05:41:37
  TRACK 278 AUDIO
    TITLE "30:cjc023_2934"
    INDEX 01 05:41:62
  TRACK 279 AUDIO
    TITLE "0:"
    INDEX 01 05:44:71
  TRACK 280 AUDIO
    TITLE "31:cjc023_2935"
    INDEX 01 05:45:15
  TRACK 281 AUDIO
    TITLE "0:"
    INDEX 01 05:48:23
  TRACK 282 AUDIO
    TITLE "28:cjc023_2936"
    INDEX 01 05:49:17
  TRACK 283 AUDIO
    TITLE "0:"
    INDEX 01 05:50:38
  TRACK 284 AUDIO
    TITLE "29:cjc023_2937"
    INDEX 01 05:51:10
  TRACK 285 AUDIO
    TITLE "0:"
    INDEX 01 05:54:08
  TRACK 286 AUDIO
    TITLE "30:cjc023_2938"
    INDEX 01 05:54:38
  TRACK 287 AUDIO
    TITLE "0:"
    INDEX 01 05:57:65
  TRACK 288 AUDIO
    TITLE "31:cjc023_2939"
    INDEX 01 05:58:10
  TRACK 289 AUDIO
    TITLE "0:"
    INDEX 01 06:01:38
  TRACK 290 AUDIO
    TITLE "28:cjc023_2940"
    INDEX 01 06:02:33
  TRACK 291 AUDIO
    TITLE "0:"
    INDEX 01 06:03:39
  TRACK 292 AUDIO
    TITLE "29:cjc023_2941"
    INDEX 01 06:04:12
  TRACK 293 AUDIO
    TITLE "0:"
    INDEX 01 06:06:17
  TRACK 294 AUDIO
    TITLE "30:cjc023_2942"
    INDEX 01 06:06:41
  TRACK 295 AUDIO
    TITLE "0:"
    INDEX 01 06:08:46
  TRACK 296 AUDIO
    TITLE "31:cjc023_2943"
    INDEX 01 06:08:65
  TRACK 297 AUDIO
    TITLE "0:"
    INDEX 01 06:10:70
  TRACK 298 AUDIO
    TITLE "28:cjc023_2944"
    INDEX 01 06:11:65
  TRACK 299 AUDIO
    TITLE "0:"
    INDEX 01 06:13:00
  TRACK 300 AUDIO
    TITLE "29:cjc023_2945"
    INDEX 01 06:13:45
  TRACK 301 AUDIO
    TITLE "0:"
    INDEX 01 06:15:46
  TRACK 302 AUDIO
    TITLE "30:cjc023_2946"
    INDEX 01 06:15:69
  TRACK 303 AUDIO
    TITLE "0:"
    INDEX 01 06:17:35
  TRACK 304 AUDIO
    TITLE "31:cjc023_2947"
    INDEX 01 06:17:56
  TRACK 305 AUDIO
    TITLE "0:"
    INDEX 01 06:19:22
  TRACK 306 AUDIO
    TITLE "28:cjc023_2948"
    INDEX 01 06:20:17
  TRACK 307 AUDIO
    TITLE "0:"
    INDEX 01 06:21:38
  TRACK 308 AUDIO
    TITLE "29:cjc023_2949"
    INDEX 01 06:22:14
  TRACK 309 AUDIO
    TITLE "0:"
    INDEX 01 06:24:43
  TRACK 310 AUDIO
    TITLE "30:cjc023_2950"
    INDEX 01 06:24:66
  TRACK 311 AUDIO
    TITLE "0:"
    INDEX 01 06:27:25
  TRACK 312 AUDIO
    TITLE "31:cjc023_2951"
    INDEX 01 06:27:49
  TRACK 313 AUDIO
    TITLE "0:"
    INDEX 01 06:30:08
  TRACK 314 AUDIO
    TITLE "28:cjc023_2952"
    INDEX 01 06:31:05
  TRACK 315 AUDIO
    TITLE "0:"
    INDEX 01 06:32:11
  TRACK 316 AUDIO
    TITLE "29:cjc023_2953"
    INDEX 01 06:32:60
  TRACK 317 AUDIO
    TITLE "0:"
    INDEX 01 06:34:35
  TRACK 318 AUDIO
    TITLE "30:cjc023_2954"
    INDEX 01 06:34:61
  TRACK 319 AUDIO
    TITLE "0:"
    INDEX 01 06:36:56
  TRACK 320 AUDIO
    TITLE "31:cjc023_2955"
    INDEX 01 06:37:00
  TRACK 321 AUDIO
    TITLE "0:"
    INDEX 01 06:38:68
  TRACK 322 AUDIO
    TITLE "28:cjc023_2956"
    INDEX 01 06:39:66
  TRACK 323 AUDIO
    TITLE "0:"
    INDEX 01 06:40:71
  TRACK 324 AUDIO
    TITLE "29:cjc023_2957"
    INDEX 01 06:41:47
  TRACK 325 AUDIO
    TITLE "0:"
    INDEX 01 06:43:62
  TRACK 326 AUDIO
    TITLE "30:cjc023_2958"
    INDEX 01 06:44:10
  TRACK 327 AUDIO
    TITLE "0:"
    INDEX 01 06:46:21
  TRACK 328 AUDIO
    TITLE "31:cjc023_2959"
    INDEX 01 06:46:42
  TRACK 329 AUDIO
    TITLE "0:"
    INDEX 01 06:48:53
  TRACK 330 AUDIO
    TITLE "28:cjc023_2960"
    INDEX 01 06:49:50
  TRACK 331 AUDIO
    TITLE "0:"
    INDEX 01 06:50:58
  TRACK 332 AUDIO
    TITLE "29:cjc023_2961"
    INDEX 01 06:51:30
  TRACK 333 AUDIO
    TITLE "0:"
    INDEX 01 06:52:68
  TRACK 334 AUDIO
    TITLE "30:cjc023_2962"
    INDEX 01 06:53:19
  TRACK 335 AUDIO
    TITLE "0:"
    INDEX 01 06:55:02
  TRACK 336 AUDIO
    TITLE "31:cjc023_2963"
    INDEX 01 06:55:26
  TRACK 337 AUDIO
    TITLE "0:"
    INDEX 01 06:57:13
  TRACK 338 AUDIO
    TITLE "28:cjc023_2964"
    INDEX 01 06:58:04
  TRACK 339 AUDIO
    TITLE "0:"
    INDEX 01 06:59:37
  TRACK 340 AUDIO
    TITLE "29:cjc023_2965"
    INDEX 01 07:00:11
  TRACK 341 AUDIO
    TITLE "0:"
    INDEX 01 07:02:30
  TRACK 342 AUDIO
    TITLE "30:cjc023_2966"
    INDEX 01 07:02:53
  TRACK 343 AUDIO
    TITLE "0:"
    INDEX 01 07:04:56
  TRACK 344 AUDIO
    TITLE "31:cjc023_2967"
    INDEX 01 07:05:08
  TRACK 345 AUDIO
    TITLE "0:"
    INDEX 01 07:07:11
  TRACK 346 AUDIO
    TITLE "28:cjc023_2968"
    INDEX 01 07:08:12
  TRACK 347 AUDIO
    TITLE "0:"
    INDEX 01 07:09:28
  TRACK 348 AUDIO
    TITLE "29:cjc023_2969"
    INDEX 01 07:10:00
  TRACK 349 AUDIO
    TITLE "0:"
    INDEX 01 07:12:26
  TRACK 350 AUDIO
    TITLE "30:cjc023_2970"
    INDEX 01 07:12:51
  TRACK 351 AUDIO
    TITLE "0:"
    INDEX 01 07:14:70
  TRACK 352 AUDIO
    TITLE "31:cjc023_2971"
    INDEX 01 07:15:18
  TRACK 353 AUDIO
    TITLE "0:"
    INDEX 01 07:17:41
  TRACK 354 AUDIO
    TITLE "28:cjc023_2972"
    INDEX 01 07:18:36
  TRACK 355 AUDIO
    TITLE "0:"
    INDEX 01 07:19:55
  TRACK 356 AUDIO
    TITLE "29:cjc023_2973"
    INDEX 01 07:20:27
  TRACK 357 AUDIO
    TITLE "0:"
    INDEX 01 07:21:74
  TRACK 358 AUDIO
    TITLE "30:cjc023_2974"
    INDEX 01 07:22:26
  TRACK 359 AUDIO
    TITLE "0:"
    INDEX 01 07:24:19
  TRACK 360 AUDIO
    TITLE "31:cjc023_2975"
    INDEX 01 07:24:45
  TRACK 361 AUDIO
    TITLE "0:"
    INDEX 01 07:26:38
  TRACK 362 AUDIO
    TITLE "28:cjc023_2976"
    INDEX 01 07:27:35
  TRACK 363 AUDIO
    TITLE "0:"
    INDEX 01 07:28:58
  TRACK 364 AUDIO
    TITLE "29:cjc023_2977"
    INDEX 01 07:29:32
  TRACK 365 AUDIO
    TITLE "0:"
    INDEX 01 07:31:37
  TRACK 366 AUDIO
    TITLE "30:cjc023_2978"
    INDEX 01 07:31:63
  TRACK 367 AUDIO
    TITLE "0:"
    INDEX 01 07:34:08
  TRACK 368 AUDIO
    TITLE "31:cjc023_2979"
    INDEX 01 07:34:33
  TRACK 369 AUDIO
    TITLE "0:"
    INDEX 01 07:36:56
  TRACK 370 AUDIO
    TITLE "28:cjc023_2980"
    INDEX 01 07:37:53
  TRACK 371 AUDIO
    TITLE "0:"
    INDEX 01 07:38:65
  TRACK 372 AUDIO
    TITLE "29:cjc023_2981"
    INDEX 01 07:39:39
  TRACK 373 AUDIO
    TITLE "0:"
    INDEX 01 07:42:11
  TRACK 374 AUDIO
    TITLE "30:cjc023_2982"
    INDEX 01 07:42:33
  TRACK 375 AUDIO
    TITLE "0:"
    INDEX 01 07:45:10
  TRACK 376 AUDIO
    TITLE "31:cjc023_2983"
    INDEX 01 07:45:33
  TRACK 377 AUDIO
    TITLE "0:"
    INDEX 01 07:48:08
  TRACK 378 AUDIO
    TITLE "28:cjc023_2984"
    INDEX 01 07:49:08
  TRACK 379 AUDIO
    TITLE "0:"
    INDEX 01 07:50:29
  TRACK 380 AUDIO
    TITLE "29:cjc023_2985"
    INDEX 01 07:51:01
  TRACK 381 AUDIO
    TITLE "0:"
    INDEX 01 07:53:11
  TRACK 382 AUDIO
    TITLE "30:cjc023_2986"
    INDEX 01 07:53:35
  TRACK 383 AUDIO
    TITLE "0:"
    INDEX 01 07:55:16
  TRACK 384 AUDIO
    TITLE "31:cjc023_2987"
    INDEX 01 07:55:39
  TRACK 385 AUDIO
    TITLE "0:"
    INDEX 01 07:57:23
  TRACK 386 AUDIO
    TITLE "28:cjc023_2988"
    INDEX 01 07:58:20
  TRACK 387 AUDIO
    TITLE "0:"
    INDEX 01 07:59:35
  TRACK 388 AUDIO
    TITLE "29:cjc023_2989"
    INDEX 01 08:00:07
  TRACK 389 AUDIO
    TITLE "0:"
    INDEX 01 08:01:38
  TRACK 390 AUDIO
    TITLE "30:cjc023_2990"
    INDEX 01 08:01:58
  TRACK 391 AUDIO
    TITLE "0:"
    INDEX 01 08:03:43
  TRACK 392 AUDIO
    TITLE "31:cjc023_2991"
    INDEX 01 08:03:64
  TRACK 393 AUDIO
    TITLE "0:"
    INDEX 01 08:05:54
  TRACK 394 AUDIO
    TITLE "28:cjc023_2992"
    INDEX 01 08:06:51
  TRACK 395 AUDIO
    TITLE "0:"
    INDEX 01 08:07:62
  TRACK 396 AUDIO
    TITLE "29:cjc023_2993"
    INDEX 01 08:08:38
  TRACK 397 AUDIO
    TITLE "0:"
    INDEX 01 08:10:02
  TRACK 398 AUDIO
    TITLE "30:cjc023_2994"
    INDEX 01 08:10:25
  TRACK 399 AUDIO
    TITLE "0:"
    INDEX 01 08:12:01
  TRACK 400 AUDIO
    TITLE "31:cjc023_2995"
    INDEX 01 08:12:22
  TRACK 401 AUDIO
    TITLE "0:"
    INDEX 01 08:14:00
  TRACK 402 AUDIO
    TITLE "28:cjc023_2996"
    INDEX 01 08:15:01
  TRACK 403 AUDIO
    TITLE "0:"
    INDEX 01 08:16:20
  TRACK 404 AUDIO
    TITLE "29:cjc023_2997"
    INDEX 01 08:16:67
  TRACK 405 AUDIO
    TITLE "0:"
    INDEX 01 08:19:07
  TRACK 406 AUDIO
    TITLE "30:cjc023_2998"
    INDEX 01 08:19:30
  TRACK 407 AUDIO
    TITLE "0:"
    INDEX 01 08:21:29
  TRACK 408 AUDIO
    TITLE "31:cjc023_2999"
    INDEX 01 08:21:51
  TRACK 409 AUDIO
    TITLE "0:"
    INDEX 01 08:23:50
  TRACK 410 AUDIO
    TITLE "28:cjc023_3000"
    INDEX 01 08:24:45
  TRACK 411 AUDIO
    TITLE "0:"
    INDEX 01 08:25:56
  TRACK 412 AUDIO
    TITLE "29:cjc023_3001"
    INDEX 01 08:26:28
  TRACK 413 AUDIO
    TITLE "0:"
    INDEX 01 08:28:19
  TRACK 414 AUDIO
    TITLE "30:cjc023_3002"
    INDEX 01 08:28:45
  TRACK 415 AUDIO
    TITLE "0:"
    INDEX 01 08:30:48
  TRACK 416 AUDIO
    TITLE "31:cjc023_3003"
    INDEX 01 08:30:73
  TRACK 417 AUDIO
    TITLE "0:"
    INDEX 01 08:32:74
  TRACK 418 AUDIO
    TITLE "28:cjc023_3004"
    INDEX 01 08:33:73
  TRACK 419 AUDIO
    TITLE "0:"
    INDEX 01 08:35:08
  TRACK 420 AUDIO
    TITLE "29:cjc023_3005"
    INDEX 01 08:35:53
  TRACK 421 AUDIO
    TITLE "0:"
    INDEX 01 08:38:53
  TRACK 422 AUDIO
    TITLE "30:cjc023_3006"
    INDEX 01 08:38:73
  TRACK 423 AUDIO
    TITLE "0:"
    INDEX 01 08:41:42
  TRACK 424 AUDIO
    TITLE "31:cjc023_3007"
    INDEX 01 08:41:73
  TRACK 425 AUDIO
    TITLE "0:"
    INDEX 01 08:44:40
  TRACK 426 AUDIO
    TITLE "28:cjc023_3008"
    INDEX 01 08:45:49
  TRACK 427 AUDIO
    TITLE "0:"
    INDEX 01 08:46:62
  TRACK 428 AUDIO
    TITLE "29:cjc023_3009"
    INDEX 01 08:47:36
  TRACK 429 AUDIO
    TITLE "0:"
    INDEX 01 08:49:49
  TRACK 430 AUDIO
    TITLE "30:cjc023_3010"
    INDEX 01 08:49:70
  TRACK 431 AUDIO
    TITLE "0:"
    INDEX 01 08:51:56
  TRACK 432 AUDIO
    TITLE "31:cjc023_3011"
    INDEX 01 08:52:00
  TRACK 433 AUDIO
    TITLE "0:"
    INDEX 01 08:53:60
  TRACK 434 AUDIO
    TITLE "28:cjc023_3012"
    INDEX 01 08:54:58
  TRACK 435 AUDIO
    TITLE "0:"
    INDEX 01 08:55:65
  TRACK 436 AUDIO
    TITLE "29:cjc023_3013"
    INDEX 01 08:56:41
  TRACK 437 AUDIO
    TITLE "0:"
    INDEX 01 08:58:52
  TRACK 438 AUDIO
    TITLE "30:cjc023_3014"
    INDEX 01 08:58:69
  TRACK 439 AUDIO
    TITLE "0:"
    INDEX 01 09:00:57
  TRACK 440 AUDIO
    TITLE "31:cjc023_3015"
    INDEX 01 09:00:74
  TRACK 441 AUDIO
    TITLE "0:"
    INDEX 01 09:02:61
  TRACK 442 AUDIO
    TITLE "28:cjc023_3016"
    INDEX 01 09:03:59
  TRACK 443 AUDIO
    TITLE "0:"
    INDEX 01 09:04:56
  TRACK 444 AUDIO
    TITLE "29:cjc023_3017"
    INDEX 01 09:05:28
  TRACK 445 AUDIO
    TITLE "0:"
    INDEX 01 09:09:59
  TRACK 446 AUDIO
    TITLE "30:cjc023_3018"
    INDEX 01 09:10:08
  TRACK 447 AUDIO
    TITLE "0:"
    INDEX 01 09:13:14
  TRACK 448 AUDIO
    TITLE "31:cjc023_3019"
    INDEX 01 09:13:38
  TRACK 449 AUDIO
    TITLE "0:"
    INDEX 01 09:16:46
  TRACK 450 AUDIO
    TITLE "28:cjc023_3020"
    INDEX 01 09:17:43
  TRACK 451 AUDIO
    TITLE "0:"
    INDEX 01 09:18:56
  TRACK 452 AUDIO
    TITLE "29:cjc023_3021"
    INDEX 01 09:19:28
  TRACK 453 AUDIO
    TITLE "0:"
    INDEX 01 09:21:21
  TRACK 454 AUDIO
    TITLE "30:cjc023_3022"
    INDEX 01 09:21:43
  TRACK 455 AUDIO
    TITLE "0:"
    INDEX 01 09:23:15
  TRACK 456 AUDIO
    TITLE "31:cjc023_3023"
    INDEX 01 09:23:38
  TRACK 457 AUDIO
    TITLE "0:"
    INDEX 01 09:25:09
  TRACK 458 AUDIO
    TITLE "28:cjc023_3024"
    INDEX 01 09:26:07
  TRACK 459 AUDIO
    TITLE "0:"
    INDEX 01 09:27:38
  TRACK 460 AUDIO
    TITLE "29:cjc023_3025"
    INDEX 01 09:28:10
  TRACK 461 AUDIO
    TITLE "0:"
    INDEX 01 09:30:67
  TRACK 462 AUDIO
    TITLE "30:cjc023_3026"
    INDEX 01 09:31:12
  TRACK 463 AUDIO
    TITLE "0:"
    INDEX 01 09:33:58
  TRACK 464 AUDIO
    TITLE "31:cjc023_3027"
    INDEX 01 09:34:05
  TRACK 465 AUDIO
    TITLE "0:"
    INDEX 01 09:36:52
  TRACK 466 AUDIO
    TITLE "28:cjc023_3028"
    INDEX 01 09:37:48
  TRACK 467 AUDIO
    TITLE "0:"
    INDEX 01 09:38:61
  TRACK 468 AUDIO
    TITLE "29:cjc023_3029"
    INDEX 01 09:39:33
  TRACK 469 AUDIO
    TITLE "0:"
    INDEX 01 09:41:22
  TRACK 470 AUDIO
    TITLE "30:cjc023_3030"
    INDEX 01 09:41:46
  TRACK 471 AUDIO
    TITLE "0:"
    INDEX 01 09:43:49
  TRACK 472 AUDIO
    TITLE "31:cjc023_3031"
    INDEX 01 09:43:68
  TRACK 473 AUDIO
    TITLE "0:"
    INDEX 01 09:45:71
  TRACK 474 AUDIO
    TITLE "28:cjc023_3032"
    INDEX 01 09:46:65
  TRACK 475 AUDIO
    TITLE "0:"
    INDEX 01 09:48:11
  TRACK 476 AUDIO
    TITLE "29:cjc023_3033"
    INDEX 01 09:48:58
  TRACK 477 AUDIO
    TITLE "0:"
    INDEX 01 09:50:35
  TRACK 478 AUDIO
    TITLE "30:cjc023_3034"
    INDEX 01 09:50:54
  TRACK 479 AUDIO
    TITLE "0:"
    INDEX 01 09:52:40
  TRACK 480 AUDIO
    TITLE "31:cjc023_3035"
    INDEX 01 09:52:59
  TRACK 481 AUDIO
    TITLE "0:"
    INDEX 01 09:54:44
  TRACK 482 AUDIO
    TITLE "28:cjc023_3036"
    INDEX 01 09:55:40
  TRACK 483 AUDIO
    TITLE "0:"
    INDEX 01 09:56:49
  TRACK 484 AUDIO
    TITLE "29:cjc023_3037"
    INDEX 01 09:57:23
  TRACK 485 AUDIO
    TITLE "0:"
    INDEX 01 09:59:67
  TRACK 486 AUDIO
    TITLE "30:cjc023_3038"
    INDEX 01 10:00:20
  TRACK 487 AUDIO
    TITLE "0:"
    INDEX 01 10:02:38
  TRACK 488 AUDIO
    TITLE "31:cjc023_3039"
    INDEX 01 10:02:64
  TRACK 489 AUDIO
    TITLE "0:"
    INDEX 01 10:05:11
  TRACK 490 AUDIO
    TITLE "28:cjc023_3040"
    INDEX 01 10:06:08
  TRACK 491 AUDIO
    TITLE "0:"
    INDEX 01 10:07:27
  TRACK 492 AUDIO
    TITLE "29:cjc023_3041"
    INDEX 01 10:08:00
  TRACK 493 AUDIO
    TITLE "0:"
    INDEX 01 10:09:44
  TRACK 494 AUDIO
    TITLE "30:cjc023_3042"
    INDEX 01 10:09:69
  TRACK 495 AUDIO
    TITLE "0:"
    INDEX 01 10:11:59
  TRACK 496 AUDIO
    TITLE "31:cjc023_3043"
    INDEX 01 10:12:07
  TRACK 497 AUDIO
    TITLE "0:"
    INDEX 01 10:13:71
  TRACK 498 AUDIO
    TITLE "28:cjc023_3044"
    INDEX 01 10:14:67
  TRACK 499 AUDIO
    TITLE "0:"
    INDEX 01 10:16:23
  TRACK 500 AUDIO
    TITLE "29:cjc023_3045"
    INDEX 01 10:16:68
  TRACK 501 AUDIO
    TITLE "0:"
    INDEX 01 10:18:43
  TRACK 502 AUDIO
    TITLE "30:cjc023_3046"
    INDEX 01 10:18:68
  TRACK 503 AUDIO
    TITLE "0:"
    INDEX 01 10:20:54
  TRACK 504 AUDIO
    TITLE "31:cjc023_3047"
    INDEX 01 10:21:00
  TRACK 505 AUDIO
    TITLE "0:"
    INDEX 01 10:22:62
  TRACK 506 AUDIO
    TITLE "28:cjc023_3048"
    INDEX 01 10:23:58
  TRACK 507 AUDIO
    TITLE "0:"
    INDEX 01 10:24:61
  TRACK 508 AUDIO
    TITLE "29:cjc023_3049"
    INDEX 01 10:25:35
  TRACK 509 AUDIO
    TITLE "0:"
    INDEX 01 10:27:22
  TRACK 510 AUDIO
    TITLE "30:cjc023_3050"
    INDEX 01 10:27:48
  TRACK 511 AUDIO
    TITLE "0:"
    INDEX 01 10:29:19
  TRACK 512 AUDIO
    TITLE "31:cjc023_3051"
    INDEX 01 10:29:45
  TRACK 513 AUDIO
    TITLE "0:"
    INDEX 01 10:31:20
  TRACK 514 AUDIO
    TITLE "28:cjc023_3052"
    INDEX 01 10:32:18
  TRACK 515 AUDIO
    TITLE "0:"
    INDEX 01 10:33:52
  TRACK 516 AUDIO
    TITLE "29:cjc023_3053"
    INDEX 01 10:34:24
  TRACK 517 AUDIO
    TITLE "0:"
    INDEX 01 10:36:57
  TRACK 518 AUDIO
    TITLE "30:cjc023_3054"
    INDEX 01 10:37:03
  TRACK 519 AUDIO
    TITLE "0:"
    INDEX 01 10:39:24
  TRACK 520 AUDIO
    TITLE "31:cjc023_3055"
    INDEX 01 10:39:45
  TRACK 521 AUDIO
    TITLE "0:"
    INDEX 01 10:41:66
  TRACK 522 AUDIO
    TITLE "28:cjc023_3056"
    INDEX 01 10:42:63
  TRACK 523 AUDIO
    TITLE "0:"
    INDEX 01 10:44:05
  TRACK 524 AUDIO
    TITLE "29:cjc023_3057"
    INDEX 01 10:44:56
  TRACK 525 AUDIO
    TITLE "0:"
    INDEX 01 10:46:53
  TRACK 526 AUDIO
    TITLE "30:cjc023_3058"
    INDEX 01 10:47:03
  TRACK 527 AUDIO
    TITLE "0:"
    INDEX 01 10:48:64
  TRACK 528 AUDIO
    TITLE "31:cjc023_3059"
    INDEX 01 10:49:12
  TRACK 529 AUDIO
    TITLE "0:"
    INDEX 01 10:50:70
  TRACK 530 AUDIO
    TITLE "28:cjc023_3060"
    INDEX 01 10:51:68
  TRACK 531 AUDIO
    TITLE "0:"
    INDEX 01 10:53:10
  TRACK 532 AUDIO
    TITLE "29:cjc023_3061"
    INDEX 01 10:53:61
  TRACK 533 AUDIO
    TITLE "0:"
    INDEX 01 10:55:32
  TRACK 534 AUDIO
    TITLE "30:cjc023_3062"
    INDEX 01 10:55:54
  TRACK 535 AUDIO
    TITLE "0:"
    INDEX 01 10:57:47
  TRACK 536 AUDIO
    TITLE "31:cjc023_3063"
    INDEX 01 10:57:69
  TRACK 537 AUDIO
    TITLE "0:"
    INDEX 01 10:59:62
  TRACK 538 AUDIO
    TITLE "28:cjc023_3064"
    INDEX 01 11:00:59
  TRACK 539 AUDIO
    TITLE "0:"
    INDEX 01 11:01:64
  TRACK 540 AUDIO
    TITLE "29:cjc023_3065"
    INDEX 01 11:02:34
  TRACK 541 AUDIO
    TITLE "0:"
    INDEX 01 11:04:41
  TRACK 542 AUDIO
    TITLE "30:cjc023_3066"
    INDEX 01 11:04:65
  TRACK 543 AUDIO
    TITLE "0:"
    INDEX 01 11:06:32
  TRACK 544 AUDIO
    TITLE "31:cjc023_3067"
    INDEX 01 11:06:58
  TRACK 545 AUDIO
    TITLE "0:"
    INDEX 01 11:08:25
  TRACK 546 AUDIO
    TITLE "28:cjc023_3068"
    INDEX 01 11:09:25
  TRACK 547 AUDIO
    TITLE "0:"
    INDEX 01 11:10:40
  TRACK 548 AUDIO
    TITLE "29:cjc023_3069"
    INDEX 01 11:11:14
  TRACK 549 AUDIO
    TITLE "0:"
    INDEX 01 11:12:70
  TRACK 550 AUDIO
    TITLE "30:cjc023_3070"
    INDEX 01 11:13:19
  TRACK 551 AUDIO
    TITLE "0:"
    INDEX 01 11:14:71
  TRACK 552 AUDIO
    TITLE "31:cjc023_3071"
    INDEX 01 11:15:17
  TRACK 553 AUDIO
    TITLE "0:"
    INDEX 01 11:16:70
  TRACK 554 AUDIO
    TITLE "28:cjc023_3072"
    INDEX 01 11:17:69
  TRACK 555 AUDIO
    TITLE "0:"
    INDEX 01 11:19:13
  TRACK 556 AUDIO
    TITLE "29:cjc023_3073"
    INDEX 01 11:19:60
  TRACK 557 AUDIO
    TITLE "0:"
    INDEX 01 11:22:25
  TRACK 558 AUDIO
    TITLE "30:cjc023_3074"
    INDEX 01 11:22:51
  TRACK 559 AUDIO
    TITLE "0:"
    INDEX 01 11:24:71
  TRACK 560 AUDIO
    TITLE "31:cjc023_3075"
    INDEX 01 11:25:20
  TRACK 561 AUDIO
    TITLE "0:"
    INDEX 01 11:27:40
  TRACK 562 AUDIO
    TITLE "28:cjc023_3076"
    INDEX 01 11:28:40
  TRACK 563 AUDIO
    TITLE "0:"
    INDEX 01 11:29:61
  TRACK 564 AUDIO
    TITLE "29:cjc023_3077"
    INDEX 01 11:30:33
  TRACK 565 AUDIO
    TITLE "0:"
    INDEX 01 11:33:23
  TRACK 566 AUDIO
    TITLE "30:cjc023_3078"
    INDEX 01 11:33:49
  TRACK 567 AUDIO
    TITLE "0:"
    INDEX 01 11:36:31
  TRACK 568 AUDIO
    TITLE "31:cjc023_3079"
    INDEX 01 11:36:53
  TRACK 569 AUDIO
    TITLE "0:"
    INDEX 01 11:39:38
  TRACK 570 AUDIO
    TITLE "28:cjc023_3080"
    INDEX 01 11:40:35
  TRACK 571 AUDIO
    TITLE "0:"
    INDEX 01 11:41:46
  TRACK 572 AUDIO
    TITLE "29:cjc023_3081"
    INDEX 01 11:42:20
  TRACK 573 AUDIO
    TITLE "0:"
    INDEX 01 11:44:29
  TRACK 574 AUDIO
    TITLE "30:cjc023_3082"
    INDEX 01 11:44:50
  TRACK 575 AUDIO
    TITLE "0:"
    INDEX 01 11:46:38
  TRACK 576 AUDIO
    TITLE "31:cjc023_3083"
    INDEX 01 11:46:57
  TRACK 577 AUDIO
    TITLE "0:"
    INDEX 01 11:48:44
  TRACK 578 AUDIO
    TITLE "28:cjc023_3084"
    INDEX 01 11:49:42
  TRACK 579 AUDIO
    TITLE "0:"
    INDEX 01 11:51:11
  TRACK 580 AUDIO
    TITLE "29:cjc023_3085"
    INDEX 01 11:51:58
  TRACK 581 AUDIO
    TITLE "0:"
    INDEX 01 11:54:49
  TRACK 582 AUDIO
    TITLE "30:cjc023_3086"
    INDEX 01 11:54:74
  TRACK 583 AUDIO
    TITLE "0:"
    INDEX 01 11:57:30
  TRACK 584 AUDIO
    TITLE "31:cjc023_3087"
    INDEX 01 11:57:53
  TRACK 585 AUDIO
    TITLE "0:"
    INDEX 01 12:00:08
  TRACK 586 AUDIO
    TITLE "28:cjc023_3088"
    INDEX 01 12:01:08
  TRACK 587 AUDIO
    TITLE "0:"
    INDEX 01 12:02:11
  TRACK 588 AUDIO
    TITLE "29:cjc023_3089"
    INDEX 01 12:02:56
  TRACK 589 AUDIO
    TITLE "0:"
    INDEX 01 12:04:32
  TRACK 590 AUDIO
    TITLE "30:cjc023_3090"
    INDEX 01 12:04:53
  TRACK 591 AUDIO
    TITLE "0:"
    INDEX 01 12:06:21
  TRACK 592 AUDIO
    TITLE "31:cjc023_3091"
    INDEX 01 12:06:42
  TRACK 593 AUDIO
    TITLE "0:"
    INDEX 01 12:08:12
  TRACK 594 AUDIO
    TITLE "28:cjc023_3092"
    INDEX 01 12:09:07
  TRACK 595 AUDIO
    TITLE "0:"
    INDEX 01 12:10:38
  TRACK 596 AUDIO
    TITLE "29:cjc023_3093"
    INDEX 01 12:11:08
  TRACK 597 AUDIO
    TITLE "0:"
    INDEX 01 12:12:62
  TRACK 598 AUDIO
    TITLE "30:cjc023_3094"
    INDEX 01 12:13:07
  TRACK 599 AUDIO
    TITLE "0:"
    INDEX 01 12:15:08
  TRACK 600 AUDIO
    TITLE "31:cjc023_3095"
    INDEX 01 12:15:27
  TRACK 601 AUDIO
    TITLE "0:"
    INDEX 01 12:17:28
  TRACK 602 AUDIO
    TITLE "28:cjc023_3096"
    INDEX 01 12:18:20
  TRACK 603 AUDIO
    TITLE "0:"
    INDEX 01 12:19:53
  TRACK 604 AUDIO
    TITLE "29:cjc023_3097"
    INDEX 01 12:20:23
  TRACK 605 AUDIO
    TITLE "0:"
    INDEX 01 12:23:13
  TRACK 606 AUDIO
    TITLE "30:cjc023_3098"
    INDEX 01 12:23:41
  TRACK 607 AUDIO
    TITLE "0:"
    INDEX 01 12:26:23
  TRACK 608 AUDIO
    TITLE "31:cjc023_3099"
    INDEX 01 12:26:43
  TRACK 609 AUDIO
    TITLE "0:"
    INDEX 01 12:29:26
  TRACK 610 AUDIO
    TITLE "28:cjc023_3100"
    INDEX 01 12:30:19
  TRACK 611 AUDIO
    TITLE "0:"
    INDEX 01 12:31:34
  TRACK 612 AUDIO
    TITLE "29:cjc023_3101"
    INDEX 01 12:32:06
  TRACK 613 AUDIO
    TITLE "0:"
    INDEX 01 12:34:13
  TRACK 614 AUDIO
    TITLE "30:cjc023_3102"
    INDEX 01 12:34:41
  TRACK 615 AUDIO
    TITLE "0:"
    INDEX 01 12:37:13
  TRACK 616 AUDIO
    TITLE "31:cjc023_3103"
    INDEX 01 12:37:37
  TRACK 617 AUDIO
    TITLE "0:"
    INDEX 01 12:40:10
  TRACK 618 AUDIO
    TITLE "28:cjc023_3104"
    INDEX 01 12:41:05
  TRACK 619 AUDIO
    TITLE "0:"
    INDEX 01 12:42:17
  TRACK 620 AUDIO
    TITLE "29:cjc023_3105"
    INDEX 01 12:42:64
  TRACK 621 AUDIO
    TITLE "0:"
    INDEX 01 12:44:66
  TRACK 622 AUDIO
    TITLE "30:cjc023_3106"
    INDEX 01 12:45:13
  TRACK 623 AUDIO
    TITLE "0:"
    INDEX 01 12:47:02
  TRACK 624 AUDIO
    TITLE "31:cjc023_3107"
    INDEX 01 12:47:24
  TRACK 625 AUDIO
    TITLE "0:"
    INDEX 01 12:49:11
  TRACK 626 AUDIO
    TITLE "28:cjc023_3108"
    INDEX 01 12:50:08
  TRACK 627 AUDIO
    TITLE "0:"
    INDEX 01 12:51:23
  TRACK 628 AUDIO
    TITLE "29:cjc023_3109"
    INDEX 01 12:51:70
  TRACK 629 AUDIO
    TITLE "0:"
    INDEX 01 12:53:40
  TRACK 630 AUDIO
    TITLE "30:cjc023_3110"
    INDEX 01 12:53:63
  TRACK 631 AUDIO
    TITLE "0:"
    INDEX 01 12:55:33
  TRACK 632 AUDIO
    TITLE "31:cjc023_3111"
    INDEX 01 12:55:54
  TRACK 633 AUDIO
    TITLE "0:"
    INDEX 01 12:57:26
  TRACK 634 AUDIO
    TITLE "28:cjc023_3112"
    INDEX 01 12:58:23
  TRACK 635 AUDIO
    TITLE "0:"
    INDEX 01 12:59:50
  TRACK 636 AUDIO
    TITLE "29:cjc023_3113"
    INDEX 01 13:00:22
  TRACK 637 AUDIO
    TITLE "0:"
    INDEX 01 13:02:54
  TRACK 638 AUDIO
    TITLE "30:cjc023_3114"
    INDEX 01 13:03:05
  TRACK 639 AUDIO
    TITLE "0:"
    INDEX 01 13:05:25
  TRACK 640 AUDIO
    TITLE "31:cjc023_3115"
    INDEX 01 13:05:45
  TRACK 641 AUDIO
    TITLE "0:"
    INDEX 01 13:07:65
  TRACK 642 AUDIO
    TITLE "28:cjc023_3116"
    INDEX 01 13:08:61
  TRACK 643 AUDIO
    TITLE "0:"
    INDEX 01 13:09:74
  TRACK 644 AUDIO
    TITLE "29:cjc023_3117"
    INDEX 01 13:10:48
  TRACK 645 AUDIO
    TITLE "0:"
    INDEX 01 13:12:24
  TRACK 646 AUDIO
    TITLE "30:cjc023_3118"
    INDEX 01 13:12:45
  TRACK 647 AUDIO
    TITLE "0:"
    INDEX 01 13:14:26
  TRACK 648 AUDIO
    TITLE "31:cjc023_3119"
    INDEX 01 13:14:50
  TRACK 649 AUDIO
    TITLE "0:"
    INDEX 01 13:16:29
  TRACK 650 AUDIO
    TITLE "28:cjc023_3120"
    INDEX 01 13:17:31
  TRACK 651 AUDIO
    TITLE "0:"
    INDEX 01 13:18:42
  TRACK 652 AUDIO
    TITLE "29:cjc023_3121"
    INDEX 01 13:19:16
  TRACK 653 AUDIO
    TITLE "0:"
    INDEX 01 13:21:52
  TRACK 654 AUDIO
    TITLE "30:cjc023_3122"
    INDEX 01 13:22:02
  TRACK 655 AUDIO
    TITLE "0:"
    INDEX 01 13:24:50
  TRACK 656 AUDIO
    TITLE "31:cjc023_3123"
    INDEX 01 13:24:74
  TRACK 657 AUDIO
    TITLE "0:"
    INDEX 01 13:27:45
  TRACK 658 AUDIO
    TITLE "28:cjc023_3124"
    INDEX 01 13:28:44
  TRACK 659 AUDIO
    TITLE "0:"
    INDEX 01 13:29:65
  TRACK 660 AUDIO
    TITLE "29:cjc023_3125"
    INDEX 01 13:30:37
  TRACK 661 AUDIO
    TITLE "0:"
    INDEX 01 13:32:40
  TRACK 662 AUDIO
    TITLE "30:cjc023_3126"
    INDEX 01 13:32:65
  TRACK 663 AUDIO
    TITLE "0:"
    INDEX 01 13:34:41
  TRACK 664 AUDIO
    TITLE "31:cjc023_3127"
    INDEX 01 13:34:64
  TRACK 665 AUDIO
    TITLE "0:"
    INDEX 01 13:36:42
  TRACK 666 AUDIO
    TITLE "28:cjc023_3128"
    INDEX 01 13:37:37
  TRACK 667 AUDIO
    TITLE "0:"
    INDEX 01 13:38:46
  TRACK 668 AUDIO
    TITLE "29:cjc023_3129"
    INDEX 01 13:39:20
  TRACK 669 AUDIO
    TITLE "0:"
    INDEX 01 13:41:19
  TRACK 670 AUDIO
    TITLE "30:cjc023_3130"
    INDEX 01 13:41:43
  TRACK 671 AUDIO
    TITLE "0:"
    INDEX 01 13:43:16
  TRACK 672 AUDIO
    TITLE "31:cjc023_3131"
    INDEX 01 13:43:40
  TRACK 673 AUDIO
    TITLE "0:"
    INDEX 01 13:45:13
  TRACK 674 AUDIO
    TITLE "28:cjc023_3132"
    INDEX 01 13:46:15
  TRACK 675 AUDIO
    TITLE "0:"
    INDEX 01 13:47:22
  TRACK 676 AUDIO
    TITLE "29:cjc023_3133"
    INDEX 01 13:47:67
  TRACK 677 AUDIO
    TITLE "0:"
    INDEX 01 13:49:68
  TRACK 678 AUDIO
    TITLE "30:cjc023_3134"
    INDEX 01 13:50:16
  TRACK 679 AUDIO
    TITLE "0:"
    INDEX 01 13:52:07
  TRACK 680 AUDIO
    TITLE "31:cjc023_3135"
    INDEX 01 13:52:29
  TRACK 681 AUDIO
    TITLE "0:"
    INDEX 01 13:54:20
  TRACK 682 AUDIO
    TITLE "28:cjc023_3136"
    INDEX 01 13:55:17
  TRACK 683 AUDIO
    TITLE "0:"
    INDEX 01 13:56:40
  TRACK 684 AUDIO
    TITLE "29:cjc023_3137"
    INDEX 01 13:57:10
  TRACK 685 AUDIO
    TITLE "0:"
    INDEX 01 13:59:17
  TRACK 686 AUDIO
    TITLE "30:cjc023_3138"
    INDEX 01 13:59:41
  TRACK 687 AUDIO
    TITLE "0:"
    INDEX 01 14:01:24
  TRACK 688 AUDIO
    TITLE "31:cjc023_3139"
    INDEX 01 14:01:45
  TRACK 689 AUDIO
    TITLE "0:"
    INDEX 01 14:03:29
  TRACK 690 AUDIO
    TITLE "28:cjc023_3140"
    INDEX 01 14:04:24
  TRACK 691 AUDIO
    TITLE "0:"
    INDEX 01 14:05:39
  TRACK 692 AUDIO
    TITLE "29:cjc023_3141"
    INDEX 01 14:06:13
  TRACK 693 AUDIO
    TITLE "0:"
    INDEX 01 14:08:38
  TRACK 694 AUDIO
    TITLE "30:cjc023_3142"
    INDEX 01 14:08:57
  TRACK 695 AUDIO
    TITLE "0:"
    INDEX 01 14:10:42
  TRACK 696 AUDIO
    TITLE "31:cjc023_3143"
    INDEX 01 14:10:62
  TRACK 697 AUDIO
    TITLE "0:"
    INDEX 01 14:12:47
  TRACK 698 AUDIO
    TITLE "28:cjc023_3144"
    INDEX 01 14:13:45
  TRACK 699 AUDIO
    TITLE "0:"
    INDEX 01 14:14:74
  TRACK 700 AUDIO
    TITLE "29:cjc023_3145"
    INDEX 01 14:15:46
  TRACK 701 AUDIO
    TITLE "0:"
    INDEX 01 14:18:15
  TRACK 702 AUDIO
    TITLE "30:cjc023_3146"
    INDEX 01 14:18:36
  TRACK 703 AUDIO
    TITLE "0:"
    INDEX 01 14:20:68
  TRACK 704 AUDIO
    TITLE "31:cjc023_3147"
    INDEX 01 14:21:17
  TRACK 705 AUDIO
    TITLE "0:"
    INDEX 01 14:23:53
  TRACK 706 AUDIO
    TITLE "28:cjc023_3148"
    INDEX 01 14:24:50
  TRACK 707 AUDIO
    TITLE "0:"
    INDEX 01 14:26:00
  TRACK 708 AUDIO
    TITLE "29:cjc023_3149"
    INDEX 01 14:26:45
  TRACK 709 AUDIO
    TITLE "0:"
    INDEX 01 14:28:44
  TRACK 710 AUDIO
    TITLE "30:cjc023_3150"
    INDEX 01 14:28:68
  TRACK 711 AUDIO
    TITLE "0:"
    INDEX 01 14:31:05
  TRACK 712 AUDIO
    TITLE "31:cjc023_3151"
    INDEX 01 14:31:29
  TRACK 713 AUDIO
    TITLE "0:"
    INDEX 01 14:33:42
  TRACK 714 AUDIO
    TITLE "28:cjc023_3152"
    INDEX 01 14:34:37
  TRACK 715 AUDIO
    TITLE "0:"
    INDEX 01 14:35:46
  TRACK 716 AUDIO
    TITLE "29:cjc023_3153"
    INDEX 01 14:36:18
  TRACK 717 AUDIO
    TITLE "0:"
    INDEX 01 14:38:07
  TRACK 718 AUDIO
    TITLE "30:cjc023_3154"
    INDEX 01 14:38:33
  TRACK 719 AUDIO
    TITLE "0:"
    INDEX 01 14:40:04
  TRACK 720 AUDIO
    TITLE "31:cjc023_3155"
    INDEX 01 14:40:30
  TRACK 721 AUDIO
    TITLE "0:"
    INDEX 01 14:42:01
  TRACK 722 AUDIO
    TITLE "28:cjc023_3156"
    INDEX 01 14:43:01
  TRACK 723 AUDIO
    TITLE "0:"
    INDEX 01 14:44:12
  TRACK 724 AUDIO
    TITLE "29:cjc023_3157"
    INDEX 01 14:44:61
  TRACK 725 AUDIO
    TITLE "0:"
    INDEX 01 14:46:34
  TRACK 726 AUDIO
    TITLE "30:cjc023_3158"
    INDEX 01 14:46:54
  TRACK 727 AUDIO
    TITLE "0:"
    INDEX 01 14:48:53
  TRACK 728 AUDIO
    TITLE "31:cjc023_3159"
    INDEX 01 14:48:74
  TRACK 729 AUDIO
    TITLE "0:"
    INDEX 01 14:50:73
  TRACK 730 AUDIO
    TITLE "28:cjc023_3160"
    INDEX 01 14:51:73
  TRACK 731 AUDIO
    TITLE "0:"
    INDEX 01 14:53:15
  TRACK 732 AUDIO
    TITLE "29:cjc023_3161"
    INDEX 01 14:53:64
  TRACK 733 AUDIO
    TITLE "0:"
    INDEX 01 14:55:47
  TRACK 734 AUDIO
    TITLE "30:cjc023_3162"
    INDEX 01 14:55:73
  TRACK 735 AUDIO
    TITLE "0:"
    INDEX 01 14:57:66
  TRACK 736 AUDIO
    TITLE "31:cjc023_3163"
    INDEX 01 14:58:10
  TRACK 737 AUDIO
    TITLE "0:"
    INDEX 01 14:59:74
  TRACK 738 AUDIO
    TITLE "28:cjc023_3164"
    INDEX 01 15:00:74
  TRACK 739 AUDIO
    TITLE "0:"
    INDEX 01 15:02:14
  TRACK 740 AUDIO
    TITLE "29:cjc023_3165"
    INDEX 01 15:02:59
  TRACK 741 AUDIO
    TITLE "0:"
    INDEX 01 15:05:04
  TRACK 742 AUDIO
    TITLE "30:cjc023_3166"
    INDEX 01 15:05:26
  TRACK 743 AUDIO
    TITLE "0:"
    INDEX 01 15:07:40
  TRACK 744 AUDIO
    TITLE "31:cjc023_3167"
    INDEX 01 15:07:60
  TRACK 745 AUDIO
    TITLE "0:"
    INDEX 01 15:10:02
  TRACK 746 AUDIO
    TITLE "28:cjc023_3168"
    INDEX 01 15:10:70
  TRACK 747 AUDIO
    TITLE "0:"
    INDEX 01 15:12:04
  TRACK 748 AUDIO
    TITLE "29:cjc023_3169"
    INDEX 01 15:12:51
  TRACK 749 AUDIO
    TITLE "0:"
    INDEX 01 15:14:33
  TRACK 750 AUDIO
    TITLE "30:cjc023_3170"
    INDEX 01 15:14:54
  TRACK 751 AUDIO
    TITLE "0:"
    INDEX 01 15:16:34
  TRACK 752 AUDIO
    TITLE "31:cjc023_3171"
    INDEX 01 15:16:51
  TRACK 753 AUDIO
    TITLE "0:"
    INDEX 01 15:18:30
  TRACK 754 AUDIO
    TITLE "28:cjc023_3172"
    INDEX 01 15:19:26
  TRACK 755 AUDIO
    TITLE "0:"
    INDEX 01 15:20:33
  TRACK 756 AUDIO
    TITLE "29:cjc023_3173"
    INDEX 01 15:21:03
  TRACK 757 AUDIO
    TITLE "0:"
    INDEX 01 15:23:36
  TRACK 758 AUDIO
    TITLE "30:cjc023_3174"
    INDEX 01 15:23:57
  TRACK 759 AUDIO
    TITLE "0:"
    INDEX 01 15:25:44
  TRACK 760 AUDIO
    TITLE "31:cjc023_3175"
    INDEX 01 15:25:68
  TRACK 761 AUDIO
    TITLE "0:"
    INDEX 01 15:27:57
  TRACK 762 AUDIO
    TITLE "28:cjc023_3176"
    INDEX 01 15:28:52
  TRACK 763 AUDIO
    TITLE "0:"
    INDEX 01 15:29:71
  TRACK 764 AUDIO
    TITLE "29:cjc023_3177"
    INDEX 01 15:30:42
  TRACK 765 AUDIO
    TITLE "0:"
    INDEX 01 15:33:56
  TRACK 766 AUDIO
    TITLE "30:cjc023_3178"
    INDEX 01 15:34:02
  TRACK 767 AUDIO
    TITLE "0:"
    INDEX 01 15:36:23
  TRACK 768 AUDIO
    TITLE "31:cjc023_3179"
    INDEX 01 15:36:42
  TRACK 769 AUDIO
    TITLE "0:"
    INDEX 01 15:38:63
  TRACK 770 AUDIO
    TITLE "28:cjc023_3180"
    INDEX 01 15:39:54
  TRACK 771 AUDIO
    TITLE "0:"
    INDEX 01 15:40:60
  TRACK 772 AUDIO
    TITLE "29:cjc023_3181"
    INDEX 01 15:41:30
  TRACK 773 AUDIO
    TITLE "0:"
    INDEX 01 15:45:00
  TRACK 774 AUDIO
    TITLE "30:cjc023_3182"
    INDEX 01 15:45:23
  TRACK 775 AUDIO
    TITLE "0:"
    INDEX 01 15:48:14
  TRACK 776 AUDIO
    TITLE "31:cjc023_3183"
    INDEX 01 15:48:36
  TRACK 777 AUDIO
    TITLE "0:"
    INDEX 01 15:51:26
  TRACK 778 AUDIO
    TITLE "28:cjc023_3184"
    INDEX 01 15:52:24
  TRACK 779 AUDIO
    TITLE "0:"
    INDEX 01 15:53:27
  TRACK 780 AUDIO
    TITLE "29:cjc023_3185"
    INDEX 01 15:54:03
  TRACK 781 AUDIO
    TITLE "0:"
    INDEX 01 15:57:40
  TRACK 782 AUDIO
    TITLE "30:cjc023_3186"
    INDEX 01 15:57:60
  TRACK 783 AUDIO
    TITLE "0:"
    INDEX 01 16:00:35
  TRACK 784 AUDIO
    TITLE "31:cjc023_3187"
    INDEX 01 16:00:58
  TRACK 785 AUDIO
    TITLE "0:"
    INDEX 01 16:03:29
  TRACK 786 AUDIO
    TITLE "28:cjc023_3188"
    INDEX 01 16:04:33
  TRACK 787 AUDIO
    TITLE "0:"
    INDEX 01 16:05:61
  TRACK 788 AUDIO
    TITLE "29:cjc023_3189"
    INDEX 01 16:06:30
  TRACK 789 AUDIO
    TITLE "0:"
    INDEX 01 16:09:65
  TRACK 790 AUDIO
    TITLE "30:cjc023_3190"
    INDEX 01 16:10:18
  TRACK 791 AUDIO
    TITLE "0:"
    INDEX 01 16:12:60
  TRACK 792 AUDIO
    TITLE "31:cjc023_3191"
    INDEX 01 16:13:02
  TRACK 793 AUDIO
    TITLE "0:"
    INDEX 01 16:15:44
  TRACK 794 AUDIO
    TITLE "28:cjc023_3192"
    INDEX 01 16:16:44
  TRACK 795 AUDIO
    TITLE "0:"
    INDEX 01 16:17:67
  TRACK 796 AUDIO
    TITLE "29:cjc023_3193"
    INDEX 01 16:18:39
  TRACK 797 AUDIO
    TITLE "0:"
    INDEX 01 16:20:04
  TRACK 798 AUDIO
    TITLE "30:cjc023_3194"
    INDEX 01 16:20:28
  TRACK 799 AUDIO
    TITLE "0:"
    INDEX 01 16:22:11
  TRACK 800 AUDIO
    TITLE "31:cjc023_3195"
    INDEX 01 16:22:32
  TRACK 801 AUDIO
    TITLE "0:"
    INDEX 01 16:24:16
